<?xml version="1.0" encoding="utf-8"?>
<!-- Generator: Adobe Illustrator 21.1.0, SVG Export Plug-In . SVG Version: 6.00 Build 0)  -->
<svg version="1.1" id="Livello_1" xmlns="http://www.w3.org/2000/svg" xmlns:xlink="http://www.w3.org/1999/xlink" x="0px" y="0px"
	 viewBox="0 0 448 20" style="enable-background:new 0 0 448 20;" xml:space="preserve">
<style type="text/css">
	.st0{fill:#FAFAFA;}
</style>
<g id="XMLID_41_">
	<path id="XMLID_73_" class="st0" d="M51,19h-8.2L45,9.4l-12,9.5l-2.7,0l-7.6-9.6L20.4,19l-8.3,0l4.1-17.6l8.2,0l8.6,10.9L46.9,1.4
		l8.2,0L51,19z"/>
	<path id="XMLID_71_" class="st0" d="M94.6,16.9c-0.1,0.6-0.7,1.1-1.7,1.5c-1,0.4-2.2,0.6-3.5,0.6L59.9,19c-1.3,0-2.4-0.2-3.2-0.6
		c-0.8-0.4-1.2-0.9-1-1.5l3.6-15.5l8.3,0l-3,12.8c-0.1,0.3,0.1,0.5,0.5,0.7c0.4,0.2,0.9,0.3,1.6,0.3l17.6,0c0.7,0,1.2-0.1,1.7-0.3
		c0.5-0.2,0.8-0.5,0.8-0.8l3-12.9h8.3L94.6,16.9z"/>
	<path id="XMLID_69_" class="st0" d="M137.2,19.1L103.1,19c-1.3,0-2.4-0.2-3.2-0.6c-0.8-0.4-1.2-0.9-1-1.5l3.6-15.5l8.3,0l-3,12.8
		c-0.1,0.3,0.1,0.5,0.5,0.7c0.4,0.2,0.9,0.3,1.6,0.3l28.2,0.1L137.2,19.1z"/>
	<path id="XMLID_67_" class="st0" d="M155.3,19.1l-8.2,0l3-12.8c0.1-0.3-0.1-0.5-0.5-0.7c-0.4-0.2-0.9-0.3-1.6-0.3l-12.9,0l0.9-3.7
		l38.9,0l-0.9,3.8l-12.9,0c-0.7,0-1.2,0.1-1.7,0.3c-0.5,0.2-0.8,0.5-0.9,0.7L155.3,19.1z"/>
	<path id="XMLID_65_" class="st0" d="M178.4,1.4l8.3,0L182.5,19l-8.3,0L178.4,1.4z"/>
	<path id="XMLID_63_" class="st0" d="M252.6,19h-8.2l3-12.7c0.1-0.3-0.1-0.5-0.5-0.7c-0.4-0.2-0.9-0.3-1.6-0.3l-12.9,0l0.9-3.8
		l38.9,0l-0.9,3.9l-12.9,0c-0.7,0-1.2,0.1-1.7,0.3c-0.5,0.2-0.8,0.5-0.9,0.7L252.6,19z"/>
	<path id="XMLID_60_" class="st0" d="M352.3,19l-9.4,0l-1.6-2.5l-15.7,0l-2.7,2.6l-9.4,0l18.2-17.6l9.4,0L352.3,19z M338.9,12.7
		L335.3,7l-5.8,5.7L338.9,12.7z"/>
	<path id="XMLID_57_" class="st0" d="M358.9,1.4l34.1,0c1.3,0,2.4,0.3,3.2,0.7c0.8,0.4,1.1,0.9,1,1.5l-3.2,13.4
		c-0.1,0.6-0.7,1.1-1.7,1.5c-1,0.4-2.2,0.6-3.5,0.6L354.8,19L358.9,1.4z M363.9,15.3l20,0c0.7,0,1.2-0.1,1.7-0.3
		c0.5-0.2,0.8-0.5,0.8-0.7l1.9-8c0.1-0.3-0.1-0.5-0.5-0.7c-0.4-0.2-0.9-0.3-1.6-0.3l-20,0L363.9,15.3z"/>
	<path id="XMLID_52_" class="st0" d="M434,19h-9.4l-1.6-2.5l-15.7,0l-2.6,2.6l-9.4,0l18.2-17.6l9.4,0L434,19z M420.6,12.7L417,7
		l-5.8,5.7L420.6,12.7z"/>
	<path id="XMLID_48_" class="st0" d="M192.8,12.1c-2.2,0-4.5-0.8-4.2-2.1c0.3-1.3,1.3-5.5,1.5-6.3c0.3-1.4,2.5-2.3,5.4-2.3
		c0,0,31.4,0,33.6,0l-0.9,3.8c-1.5,0-26.3,0-28,0c-1.8,0-2.4,0.6-2.6,1.3c0,0-0.1,0.3-0.2,0.7c-0.1,0.5,0.3,1.2,1.9,1.2
		c1.7,0,17.9,0,17.9,0l5.6,0c3.2,0,4.4,1.2,4,2.8l-1.2,5.6c-0.4,1.7-2.9,2.3-5.2,2.3h-34.2l0.9-3.8c1.7,0,28.4,0,28.4,0
		c2.4,0,2.5-1.1,2.7-1.8c0.2-0.7-0.4-1.3-2-1.3c-1.5,0-15.9,0-17.7,0L192.8,12.1z"/>
	<path id="XMLID_42_" class="st0" d="M302.7,19l0.9-3.8c0.2-0.7-0.4-1.4-2-1.4c-1.5,0-15.8,0-17.6,0c-1.8,0-2.5,0.6-2.6,1.3
		l-0.9,3.8h-8.4c0,0,3.3-14.1,3.6-15.2c0.3-1.4,2.5-2.3,5.5-2.3c0,0,26.7,0,28.9,0c3.2,0,4.9,0.8,4.5,2.4l-1.4,5.8
		c-0.4,1.7-3,2.4-5.3,2.4c3.2,0,4.4,1.2,4.1,2.8l-0.9,4.2H302.7z M282.9,8.9c-0.1,0.5,0.3,1.2,1.9,1.2c1.8,0,18.2,0,18.2,0
		c1.3,0,1.9-0.5,2.2-1.5c0.2-0.8,0.4-1.6,0.5-2c0.2-0.7-0.3-1.4-1.9-1.4c-1.5,0-15.9,0-17.6,0c-1.8,0-2.5,0.7-2.6,1.3
		C283.4,6.6,283,8.5,282.9,8.9z"/>
</g>
</svg>
